<mxfile host="app.diagrams.net" agent="Mozilla/5.0 (Macintosh; Intel Mac OS X 10_15_7) AppleWebKit/537.36 (KHTML, like Gecko) Chrome/120.0.0.0 Safari/537.36" version="25.0.3">
  <diagram name="第 1 页" id="ElRphvzagF2By0HSHYnd">
    <mxGraphModel dx="1793" dy="2043" grid="1" gridSize="10" guides="1" tooltips="1" connect="1" arrows="1" fold="1" page="1" pageScale="1" pageWidth="1654" pageHeight="1169" math="0" shadow="0">
      <root>
        <mxCell id="0" />
        <mxCell id="1" parent="0" />
        <mxCell id="d-H-3J-rTo5-7E1GxQel-34" style="edgeStyle=orthogonalEdgeStyle;rounded=0;orthogonalLoop=1;jettySize=auto;html=1;exitX=1;exitY=0.5;exitDx=0;exitDy=0;entryX=0;entryY=0.5;entryDx=0;entryDy=0;entryPerimeter=0;" edge="1" parent="1" source="d-H-3J-rTo5-7E1GxQel-30" target="d-H-3J-rTo5-7E1GxQel-35">
          <mxGeometry relative="1" as="geometry">
            <mxPoint x="825" y="140" as="targetPoint" />
          </mxGeometry>
        </mxCell>
        <mxCell id="d-H-3J-rTo5-7E1GxQel-30" value="" style="rounded=0;whiteSpace=wrap;html=1;" vertex="1" parent="1">
          <mxGeometry x="440.05" y="-240" width="280" height="160" as="geometry" />
        </mxCell>
        <mxCell id="d-H-3J-rTo5-7E1GxQel-6" value="" style="edgeStyle=orthogonalEdgeStyle;rounded=0;orthogonalLoop=1;jettySize=auto;html=1;" edge="1" parent="1" source="d-H-3J-rTo5-7E1GxQel-1" target="d-H-3J-rTo5-7E1GxQel-5">
          <mxGeometry relative="1" as="geometry" />
        </mxCell>
        <mxCell id="d-H-3J-rTo5-7E1GxQel-1" value="用户" style="shape=umlActor;verticalLabelPosition=bottom;verticalAlign=top;html=1;outlineConnect=0;" vertex="1" parent="1">
          <mxGeometry x="90" y="220" width="30" height="60" as="geometry" />
        </mxCell>
        <mxCell id="d-H-3J-rTo5-7E1GxQel-31" style="edgeStyle=orthogonalEdgeStyle;rounded=0;orthogonalLoop=1;jettySize=auto;html=1;exitX=0.5;exitY=0;exitDx=0;exitDy=0;entryX=0;entryY=0.5;entryDx=0;entryDy=0;" edge="1" parent="1" source="d-H-3J-rTo5-7E1GxQel-5" target="d-H-3J-rTo5-7E1GxQel-30">
          <mxGeometry relative="1" as="geometry">
            <mxPoint x="295" y="80" as="sourcePoint" />
          </mxGeometry>
        </mxCell>
        <mxCell id="d-H-3J-rTo5-7E1GxQel-36" value="基础数据" style="edgeLabel;html=1;align=center;verticalAlign=middle;resizable=0;points=[];" vertex="1" connectable="0" parent="d-H-3J-rTo5-7E1GxQel-31">
          <mxGeometry x="0.4646" y="-1" relative="1" as="geometry">
            <mxPoint x="1" as="offset" />
          </mxGeometry>
        </mxCell>
        <mxCell id="d-H-3J-rTo5-7E1GxQel-38" style="edgeStyle=orthogonalEdgeStyle;rounded=0;orthogonalLoop=1;jettySize=auto;html=1;exitX=1;exitY=0.25;exitDx=0;exitDy=0;entryX=0;entryY=0.5;entryDx=0;entryDy=0;" edge="1" parent="1" source="d-H-3J-rTo5-7E1GxQel-5" target="d-H-3J-rTo5-7E1GxQel-16">
          <mxGeometry relative="1" as="geometry" />
        </mxCell>
        <mxCell id="d-H-3J-rTo5-7E1GxQel-41" style="edgeStyle=orthogonalEdgeStyle;rounded=0;orthogonalLoop=1;jettySize=auto;html=1;exitX=1;exitY=0.75;exitDx=0;exitDy=0;entryX=0.016;entryY=0.579;entryDx=0;entryDy=0;entryPerimeter=0;" edge="1" parent="1" source="d-H-3J-rTo5-7E1GxQel-5" target="d-H-3J-rTo5-7E1GxQel-42">
          <mxGeometry relative="1" as="geometry">
            <mxPoint x="450" y="370" as="targetPoint" />
          </mxGeometry>
        </mxCell>
        <mxCell id="d-H-3J-rTo5-7E1GxQel-5" value="" style="whiteSpace=wrap;html=1;verticalAlign=top;" vertex="1" parent="1">
          <mxGeometry x="210" y="140" width="170" height="220" as="geometry" />
        </mxCell>
        <mxCell id="d-H-3J-rTo5-7E1GxQel-7" value="业务应用" style="text;html=1;align=center;verticalAlign=middle;whiteSpace=wrap;rounded=0;fillColor=#d5e8d4;strokeColor=#82b366;" vertex="1" parent="1">
          <mxGeometry x="210" y="140" width="60" height="30" as="geometry" />
        </mxCell>
        <mxCell id="d-H-3J-rTo5-7E1GxQel-8" value="浏览器" style="rounded=0;whiteSpace=wrap;html=1;" vertex="1" parent="1">
          <mxGeometry x="235" y="190" width="120" height="40" as="geometry" />
        </mxCell>
        <mxCell id="d-H-3J-rTo5-7E1GxQel-9" value="锁屏杂志" style="rounded=0;whiteSpace=wrap;html=1;" vertex="1" parent="1">
          <mxGeometry x="235" y="240" width="120" height="40" as="geometry" />
        </mxCell>
        <mxCell id="d-H-3J-rTo5-7E1GxQel-10" value="......." style="rounded=0;whiteSpace=wrap;html=1;" vertex="1" parent="1">
          <mxGeometry x="235" y="290" width="120" height="40" as="geometry" />
        </mxCell>
        <mxCell id="d-H-3J-rTo5-7E1GxQel-16" value="" style="whiteSpace=wrap;html=1;verticalAlign=top;" vertex="1" parent="1">
          <mxGeometry x="498.33" y="-50" width="170" height="220" as="geometry" />
        </mxCell>
        <mxCell id="d-H-3J-rTo5-7E1GxQel-17" value="日志服务" style="text;html=1;align=center;verticalAlign=middle;whiteSpace=wrap;rounded=0;fillColor=#d5e8d4;strokeColor=#82b366;" vertex="1" parent="1">
          <mxGeometry x="498.33" y="-50" width="60" height="30" as="geometry" />
        </mxCell>
        <mxCell id="d-H-3J-rTo5-7E1GxQel-18" value="前端埋点" style="rounded=0;whiteSpace=wrap;html=1;" vertex="1" parent="1">
          <mxGeometry x="523.33" width="120" height="40" as="geometry" />
        </mxCell>
        <mxCell id="d-H-3J-rTo5-7E1GxQel-19" value="后端埋点" style="rounded=0;whiteSpace=wrap;html=1;" vertex="1" parent="1">
          <mxGeometry x="523.33" y="50" width="120" height="40" as="geometry" />
        </mxCell>
        <mxCell id="d-H-3J-rTo5-7E1GxQel-20" value="......." style="rounded=0;whiteSpace=wrap;html=1;" vertex="1" parent="1">
          <mxGeometry x="523.33" y="100" width="120" height="40" as="geometry" />
        </mxCell>
        <mxCell id="d-H-3J-rTo5-7E1GxQel-26" value="用户数据" style="shape=cylinder3;whiteSpace=wrap;html=1;boundedLbl=1;backgroundOutline=1;size=15;fillColor=#b0e3e6;strokeColor=#0e8088;" vertex="1" parent="1">
          <mxGeometry x="470.05" y="-200" width="60" height="80" as="geometry" />
        </mxCell>
        <mxCell id="d-H-3J-rTo5-7E1GxQel-28" value="物料数据" style="shape=cylinder3;whiteSpace=wrap;html=1;boundedLbl=1;backgroundOutline=1;size=15;fillColor=#b0e3e6;strokeColor=#0e8088;" vertex="1" parent="1">
          <mxGeometry x="550.05" y="-200" width="60" height="80" as="geometry" />
        </mxCell>
        <mxCell id="d-H-3J-rTo5-7E1GxQel-29" value="......." style="shape=cylinder3;whiteSpace=wrap;html=1;boundedLbl=1;backgroundOutline=1;size=15;fillColor=#b0e3e6;strokeColor=#0e8088;" vertex="1" parent="1">
          <mxGeometry x="630.05" y="-200" width="60" height="80" as="geometry" />
        </mxCell>
        <mxCell id="d-H-3J-rTo5-7E1GxQel-84" style="edgeStyle=orthogonalEdgeStyle;rounded=0;orthogonalLoop=1;jettySize=auto;html=1;exitX=1;exitY=0.5;exitDx=0;exitDy=0;exitPerimeter=0;entryX=0.5;entryY=0;entryDx=0;entryDy=0;" edge="1" parent="1" source="d-H-3J-rTo5-7E1GxQel-35" target="d-H-3J-rTo5-7E1GxQel-49">
          <mxGeometry relative="1" as="geometry" />
        </mxCell>
        <mxCell id="d-H-3J-rTo5-7E1GxQel-86" style="edgeStyle=orthogonalEdgeStyle;rounded=0;orthogonalLoop=1;jettySize=auto;html=1;exitX=0.5;exitY=0;exitDx=0;exitDy=0;exitPerimeter=0;" edge="1" parent="1" source="d-H-3J-rTo5-7E1GxQel-35">
          <mxGeometry relative="1" as="geometry">
            <mxPoint x="1420" y="249.33333333333348" as="targetPoint" />
          </mxGeometry>
        </mxCell>
        <mxCell id="d-H-3J-rTo5-7E1GxQel-35" value="消息队列Kafka&lt;br&gt;业务/日志数据" style="shape=cylinder3;whiteSpace=wrap;html=1;boundedLbl=1;backgroundOutline=1;size=15;direction=south;fillColor=#f8cecc;strokeColor=#b85450;" vertex="1" parent="1">
          <mxGeometry x="740" y="220" width="130" height="60" as="geometry" />
        </mxCell>
        <mxCell id="d-H-3J-rTo5-7E1GxQel-40" style="edgeStyle=orthogonalEdgeStyle;rounded=0;orthogonalLoop=1;jettySize=auto;html=1;exitX=1;exitY=0.5;exitDx=0;exitDy=0;entryX=0.5;entryY=1;entryDx=0;entryDy=0;entryPerimeter=0;" edge="1" parent="1" source="d-H-3J-rTo5-7E1GxQel-16" target="d-H-3J-rTo5-7E1GxQel-35">
          <mxGeometry relative="1" as="geometry" />
        </mxCell>
        <mxCell id="d-H-3J-rTo5-7E1GxQel-42" value="" style="whiteSpace=wrap;html=1;verticalAlign=top;" vertex="1" parent="1">
          <mxGeometry x="388.33000000000004" y="490" width="170" height="220" as="geometry" />
        </mxCell>
        <mxCell id="d-H-3J-rTo5-7E1GxQel-43" value="推荐引擎" style="text;html=1;align=center;verticalAlign=middle;whiteSpace=wrap;rounded=0;fillColor=#d5e8d4;strokeColor=#82b366;" vertex="1" parent="1">
          <mxGeometry x="388.33000000000004" y="490" width="60" height="30" as="geometry" />
        </mxCell>
        <mxCell id="d-H-3J-rTo5-7E1GxQel-44" value="混排" style="rounded=0;whiteSpace=wrap;html=1;" vertex="1" parent="1">
          <mxGeometry x="413.33000000000004" y="540" width="120" height="40" as="geometry" />
        </mxCell>
        <mxCell id="d-H-3J-rTo5-7E1GxQel-45" value="产品策略" style="rounded=0;whiteSpace=wrap;html=1;" vertex="1" parent="1">
          <mxGeometry x="413.33000000000004" y="590" width="120" height="40" as="geometry" />
        </mxCell>
        <mxCell id="d-H-3J-rTo5-7E1GxQel-46" value="......." style="rounded=0;whiteSpace=wrap;html=1;" vertex="1" parent="1">
          <mxGeometry x="413.33000000000004" y="640" width="120" height="40" as="geometry" />
        </mxCell>
        <mxCell id="d-H-3J-rTo5-7E1GxQel-52" style="edgeStyle=orthogonalEdgeStyle;rounded=0;orthogonalLoop=1;jettySize=auto;html=1;exitX=0.5;exitY=1;exitDx=0;exitDy=0;" edge="1" parent="1" source="d-H-3J-rTo5-7E1GxQel-49" target="d-H-3J-rTo5-7E1GxQel-51">
          <mxGeometry relative="1" as="geometry" />
        </mxCell>
        <mxCell id="d-H-3J-rTo5-7E1GxQel-57" style="edgeStyle=orthogonalEdgeStyle;rounded=0;orthogonalLoop=1;jettySize=auto;html=1;exitX=1;exitY=0.5;exitDx=0;exitDy=0;" edge="1" parent="1" source="d-H-3J-rTo5-7E1GxQel-49" target="d-H-3J-rTo5-7E1GxQel-56">
          <mxGeometry relative="1" as="geometry" />
        </mxCell>
        <mxCell id="d-H-3J-rTo5-7E1GxQel-49" value="Spark/Fink&lt;br&gt;数据清洗" style="whiteSpace=wrap;html=1;fillColor=#dae8fc;strokeColor=#6c8ebf;" vertex="1" parent="1">
          <mxGeometry x="745" y="365" width="120" height="60" as="geometry" />
        </mxCell>
        <mxCell id="d-H-3J-rTo5-7E1GxQel-54" value="" style="edgeStyle=orthogonalEdgeStyle;rounded=0;orthogonalLoop=1;jettySize=auto;html=1;" edge="1" parent="1" source="d-H-3J-rTo5-7E1GxQel-51" target="d-H-3J-rTo5-7E1GxQel-53">
          <mxGeometry relative="1" as="geometry" />
        </mxCell>
        <mxCell id="d-H-3J-rTo5-7E1GxQel-51" value="消息队列Kafka&lt;div&gt;日志数据&lt;/div&gt;" style="shape=cylinder3;whiteSpace=wrap;html=1;boundedLbl=1;backgroundOutline=1;size=15;direction=south;fillColor=#f8cecc;strokeColor=#b85450;" vertex="1" parent="1">
          <mxGeometry x="740" y="495" width="130" height="60" as="geometry" />
        </mxCell>
        <mxCell id="d-H-3J-rTo5-7E1GxQel-53" value="Spark/Fink&lt;br&gt;实时特征" style="whiteSpace=wrap;html=1;fillColor=#dae8fc;strokeColor=#6c8ebf;" vertex="1" parent="1">
          <mxGeometry x="745" y="625" width="120" height="60" as="geometry" />
        </mxCell>
        <mxCell id="d-H-3J-rTo5-7E1GxQel-59" value="" style="edgeStyle=orthogonalEdgeStyle;rounded=0;orthogonalLoop=1;jettySize=auto;html=1;" edge="1" parent="1" source="d-H-3J-rTo5-7E1GxQel-56" target="d-H-3J-rTo5-7E1GxQel-58">
          <mxGeometry relative="1" as="geometry" />
        </mxCell>
        <mxCell id="d-H-3J-rTo5-7E1GxQel-65" style="edgeStyle=orthogonalEdgeStyle;rounded=0;orthogonalLoop=1;jettySize=auto;html=1;exitX=0.5;exitY=1;exitDx=0;exitDy=0;exitPerimeter=0;entryX=0.5;entryY=0;entryDx=0;entryDy=0;" edge="1" parent="1" source="d-H-3J-rTo5-7E1GxQel-56" target="d-H-3J-rTo5-7E1GxQel-61">
          <mxGeometry relative="1" as="geometry" />
        </mxCell>
        <mxCell id="d-H-3J-rTo5-7E1GxQel-56" value="HDFS&lt;div&gt;业务/日志数据&lt;br&gt;&lt;/div&gt;" style="shape=cylinder3;whiteSpace=wrap;html=1;boundedLbl=1;backgroundOutline=1;size=15;fillColor=#b0e3e6;strokeColor=#0e8088;" vertex="1" parent="1">
          <mxGeometry x="1080" y="355" width="60" height="80" as="geometry" />
        </mxCell>
        <mxCell id="d-H-3J-rTo5-7E1GxQel-58" value="MR&lt;br&gt;特征生产" style="whiteSpace=wrap;html=1;fillColor=#dae8fc;strokeColor=#6c8ebf;" vertex="1" parent="1">
          <mxGeometry x="980" y="525" width="120" height="60" as="geometry" />
        </mxCell>
        <mxCell id="d-H-3J-rTo5-7E1GxQel-61" value="Spark/Fink SQL&lt;br&gt;特征生产" style="whiteSpace=wrap;html=1;fillColor=#dae8fc;strokeColor=#6c8ebf;" vertex="1" parent="1">
          <mxGeometry x="1120" y="525" width="120" height="60" as="geometry" />
        </mxCell>
        <mxCell id="d-H-3J-rTo5-7E1GxQel-67" value="" style="edgeStyle=orthogonalEdgeStyle;rounded=0;orthogonalLoop=1;jettySize=auto;html=1;" edge="1" parent="1" source="d-H-3J-rTo5-7E1GxQel-62" target="d-H-3J-rTo5-7E1GxQel-66">
          <mxGeometry relative="1" as="geometry" />
        </mxCell>
        <mxCell id="d-H-3J-rTo5-7E1GxQel-62" value="HDFS&lt;div&gt;离线特征&lt;/div&gt;" style="shape=cylinder3;whiteSpace=wrap;html=1;boundedLbl=1;backgroundOutline=1;size=15;fillColor=#b0e3e6;strokeColor=#0e8088;" vertex="1" parent="1">
          <mxGeometry x="1080" y="655" width="60" height="80" as="geometry" />
        </mxCell>
        <mxCell id="d-H-3J-rTo5-7E1GxQel-63" style="edgeStyle=orthogonalEdgeStyle;rounded=0;orthogonalLoop=1;jettySize=auto;html=1;exitX=0.5;exitY=1;exitDx=0;exitDy=0;entryX=0.5;entryY=0;entryDx=0;entryDy=0;entryPerimeter=0;" edge="1" parent="1" source="d-H-3J-rTo5-7E1GxQel-58" target="d-H-3J-rTo5-7E1GxQel-62">
          <mxGeometry relative="1" as="geometry" />
        </mxCell>
        <mxCell id="d-H-3J-rTo5-7E1GxQel-64" style="edgeStyle=orthogonalEdgeStyle;rounded=0;orthogonalLoop=1;jettySize=auto;html=1;exitX=0.5;exitY=1;exitDx=0;exitDy=0;entryX=0.5;entryY=0;entryDx=0;entryDy=0;entryPerimeter=0;" edge="1" parent="1" source="d-H-3J-rTo5-7E1GxQel-61" target="d-H-3J-rTo5-7E1GxQel-62">
          <mxGeometry relative="1" as="geometry" />
        </mxCell>
        <mxCell id="d-H-3J-rTo5-7E1GxQel-66" value="Spark/Fink&lt;div&gt;特征更新&lt;/div&gt;" style="whiteSpace=wrap;html=1;fillColor=#dae8fc;strokeColor=#6c8ebf;" vertex="1" parent="1">
          <mxGeometry x="1050" y="805" width="120" height="60" as="geometry" />
        </mxCell>
        <mxCell id="d-H-3J-rTo5-7E1GxQel-68" value="消息队列Pulsar&lt;div&gt;特征数据&lt;/div&gt;" style="shape=cylinder3;whiteSpace=wrap;html=1;boundedLbl=1;backgroundOutline=1;size=15;direction=south;fillColor=#e1d5e7;strokeColor=#9673a6;" vertex="1" parent="1">
          <mxGeometry x="740" y="805" width="130" height="60" as="geometry" />
        </mxCell>
        <mxCell id="d-H-3J-rTo5-7E1GxQel-69" style="edgeStyle=orthogonalEdgeStyle;rounded=0;orthogonalLoop=1;jettySize=auto;html=1;exitX=0.5;exitY=1;exitDx=0;exitDy=0;entryX=0;entryY=0.5;entryDx=0;entryDy=0;entryPerimeter=0;" edge="1" parent="1" source="d-H-3J-rTo5-7E1GxQel-53" target="d-H-3J-rTo5-7E1GxQel-68">
          <mxGeometry relative="1" as="geometry" />
        </mxCell>
        <mxCell id="d-H-3J-rTo5-7E1GxQel-70" style="edgeStyle=orthogonalEdgeStyle;rounded=0;orthogonalLoop=1;jettySize=auto;html=1;exitX=0;exitY=0.5;exitDx=0;exitDy=0;entryX=0.5;entryY=0;entryDx=0;entryDy=0;entryPerimeter=0;" edge="1" parent="1" source="d-H-3J-rTo5-7E1GxQel-66" target="d-H-3J-rTo5-7E1GxQel-68">
          <mxGeometry relative="1" as="geometry" />
        </mxCell>
        <mxCell id="d-H-3J-rTo5-7E1GxQel-71" value="Spark/Fink join&lt;br&gt;样本数据" style="whiteSpace=wrap;html=1;fillColor=#dae8fc;strokeColor=#6c8ebf;" vertex="1" parent="1">
          <mxGeometry x="1425" y="220" width="120" height="60" as="geometry" />
        </mxCell>
        <mxCell id="d-H-3J-rTo5-7E1GxQel-78" style="edgeStyle=orthogonalEdgeStyle;rounded=0;orthogonalLoop=1;jettySize=auto;html=1;exitX=0.5;exitY=1;exitDx=0;exitDy=0;exitPerimeter=0;entryX=0.5;entryY=0;entryDx=0;entryDy=0;" edge="1" parent="1" source="d-H-3J-rTo5-7E1GxQel-72" target="d-H-3J-rTo5-7E1GxQel-77">
          <mxGeometry relative="1" as="geometry">
            <Array as="points">
              <mxPoint x="1360" y="456" />
              <mxPoint x="1490" y="456" />
            </Array>
          </mxGeometry>
        </mxCell>
        <mxCell id="d-H-3J-rTo5-7E1GxQel-72" value="HDFS&lt;div&gt;样本数据&lt;/div&gt;" style="shape=cylinder3;whiteSpace=wrap;html=1;boundedLbl=1;backgroundOutline=1;size=15;fillColor=#b0e3e6;strokeColor=#0e8088;" vertex="1" parent="1">
          <mxGeometry x="1330" y="351" width="60" height="80" as="geometry" />
        </mxCell>
        <mxCell id="d-H-3J-rTo5-7E1GxQel-79" style="edgeStyle=orthogonalEdgeStyle;rounded=0;orthogonalLoop=1;jettySize=auto;html=1;exitX=1;exitY=0.5;exitDx=0;exitDy=0;exitPerimeter=0;entryX=0.5;entryY=0;entryDx=0;entryDy=0;" edge="1" parent="1" source="d-H-3J-rTo5-7E1GxQel-73" target="d-H-3J-rTo5-7E1GxQel-77">
          <mxGeometry relative="1" as="geometry">
            <Array as="points">
              <mxPoint x="1624" y="456" />
              <mxPoint x="1490" y="456" />
            </Array>
          </mxGeometry>
        </mxCell>
        <mxCell id="d-H-3J-rTo5-7E1GxQel-73" value="消息队列Kafka&lt;br&gt;&lt;span style=&quot;background-color: initial;&quot;&gt;样本数据&lt;/span&gt;" style="shape=cylinder3;whiteSpace=wrap;html=1;boundedLbl=1;backgroundOutline=1;size=15;direction=south;fillColor=#f8cecc;strokeColor=#b85450;" vertex="1" parent="1">
          <mxGeometry x="1559" y="366" width="130" height="60" as="geometry" />
        </mxCell>
        <mxCell id="d-H-3J-rTo5-7E1GxQel-74" style="edgeStyle=orthogonalEdgeStyle;rounded=0;orthogonalLoop=1;jettySize=auto;html=1;exitX=0.5;exitY=1;exitDx=0;exitDy=0;entryX=0.5;entryY=0;entryDx=0;entryDy=0;entryPerimeter=0;" edge="1" parent="1" source="d-H-3J-rTo5-7E1GxQel-71" target="d-H-3J-rTo5-7E1GxQel-72">
          <mxGeometry relative="1" as="geometry">
            <Array as="points">
              <mxPoint x="1485" y="310" />
              <mxPoint x="1360" y="310" />
            </Array>
          </mxGeometry>
        </mxCell>
        <mxCell id="d-H-3J-rTo5-7E1GxQel-76" style="edgeStyle=orthogonalEdgeStyle;rounded=0;orthogonalLoop=1;jettySize=auto;html=1;exitX=0.5;exitY=1;exitDx=0;exitDy=0;entryX=0;entryY=0.5;entryDx=0;entryDy=0;entryPerimeter=0;" edge="1" parent="1" source="d-H-3J-rTo5-7E1GxQel-71" target="d-H-3J-rTo5-7E1GxQel-73">
          <mxGeometry relative="1" as="geometry">
            <Array as="points">
              <mxPoint x="1485" y="310" />
              <mxPoint x="1625" y="310" />
            </Array>
          </mxGeometry>
        </mxCell>
        <mxCell id="d-H-3J-rTo5-7E1GxQel-81" value="" style="edgeStyle=orthogonalEdgeStyle;rounded=0;orthogonalLoop=1;jettySize=auto;html=1;" edge="1" parent="1" source="d-H-3J-rTo5-7E1GxQel-77" target="d-H-3J-rTo5-7E1GxQel-80">
          <mxGeometry relative="1" as="geometry" />
        </mxCell>
        <mxCell id="d-H-3J-rTo5-7E1GxQel-77" value="GXL训练&lt;br&gt;模型&lt;br&gt;参数" style="whiteSpace=wrap;html=1;fillColor=#fff2cc;strokeColor=#d6b656;" vertex="1" parent="1">
          <mxGeometry x="1430" y="540" width="120" height="60" as="geometry" />
        </mxCell>
        <mxCell id="d-H-3J-rTo5-7E1GxQel-80" value="训练PS" style="whiteSpace=wrap;html=1;fillColor=#fff2cc;strokeColor=#d6b656;" vertex="1" parent="1">
          <mxGeometry x="1430" y="663" width="120" height="60" as="geometry" />
        </mxCell>
        <mxCell id="d-H-3J-rTo5-7E1GxQel-95" style="edgeStyle=orthogonalEdgeStyle;rounded=0;orthogonalLoop=1;jettySize=auto;html=1;exitX=1;exitY=0.5;exitDx=0;exitDy=0;exitPerimeter=0;entryX=0.5;entryY=0;entryDx=0;entryDy=0;" edge="1" parent="1" source="d-H-3J-rTo5-7E1GxQel-82" target="d-H-3J-rTo5-7E1GxQel-91">
          <mxGeometry relative="1" as="geometry" />
        </mxCell>
        <mxCell id="d-H-3J-rTo5-7E1GxQel-82" value="消息队列Kafka&lt;div&gt;模型&lt;/div&gt;" style="shape=cylinder3;whiteSpace=wrap;html=1;boundedLbl=1;backgroundOutline=1;size=15;direction=south;fillColor=#f8cecc;strokeColor=#b85450;" vertex="1" parent="1">
          <mxGeometry x="1425" y="800" width="130" height="60" as="geometry" />
        </mxCell>
        <mxCell id="d-H-3J-rTo5-7E1GxQel-83" style="edgeStyle=orthogonalEdgeStyle;rounded=0;orthogonalLoop=1;jettySize=auto;html=1;exitX=0.5;exitY=1;exitDx=0;exitDy=0;entryX=0;entryY=0.5;entryDx=0;entryDy=0;entryPerimeter=0;" edge="1" parent="1" source="d-H-3J-rTo5-7E1GxQel-80" target="d-H-3J-rTo5-7E1GxQel-82">
          <mxGeometry relative="1" as="geometry" />
        </mxCell>
        <mxCell id="d-H-3J-rTo5-7E1GxQel-87" value="特征存储&lt;br&gt;用户画像&lt;br&gt;物料画像" style="shape=cylinder3;whiteSpace=wrap;html=1;boundedLbl=1;backgroundOutline=1;size=15;fillColor=#b0e3e6;strokeColor=#0e8088;" vertex="1" parent="1">
          <mxGeometry x="740" y="940" width="130" height="80" as="geometry" />
        </mxCell>
        <mxCell id="d-H-3J-rTo5-7E1GxQel-89" style="edgeStyle=orthogonalEdgeStyle;rounded=0;orthogonalLoop=1;jettySize=auto;html=1;exitX=1;exitY=0.5;exitDx=0;exitDy=0;exitPerimeter=0;entryX=0.5;entryY=0;entryDx=0;entryDy=0;entryPerimeter=0;" edge="1" parent="1" source="d-H-3J-rTo5-7E1GxQel-68" target="d-H-3J-rTo5-7E1GxQel-87">
          <mxGeometry relative="1" as="geometry" />
        </mxCell>
        <mxCell id="d-H-3J-rTo5-7E1GxQel-90" value="" style="whiteSpace=wrap;html=1;verticalAlign=top;" vertex="1" parent="1">
          <mxGeometry x="1408.5" y="940" width="162.5" height="90" as="geometry" />
        </mxCell>
        <mxCell id="d-H-3J-rTo5-7E1GxQel-91" value="在线PS" style="text;html=1;align=center;verticalAlign=middle;whiteSpace=wrap;rounded=0;fillColor=#d5e8d4;strokeColor=#82b366;" vertex="1" parent="1">
          <mxGeometry x="1408.5" y="940" width="162.5" height="30" as="geometry" />
        </mxCell>
        <mxCell id="d-H-3J-rTo5-7E1GxQel-96" value="" style="whiteSpace=wrap;html=1;verticalAlign=top;" vertex="1" parent="1">
          <mxGeometry x="720" y="1100" width="170" height="220" as="geometry" />
        </mxCell>
        <mxCell id="d-H-3J-rTo5-7E1GxQel-97" value="特征画像" style="text;html=1;align=center;verticalAlign=middle;whiteSpace=wrap;rounded=0;fillColor=#d5e8d4;strokeColor=#82b366;" vertex="1" parent="1">
          <mxGeometry x="720" y="1100" width="60" height="30" as="geometry" />
        </mxCell>
        <mxCell id="d-H-3J-rTo5-7E1GxQel-98" value="特征查询" style="rounded=0;whiteSpace=wrap;html=1;" vertex="1" parent="1">
          <mxGeometry x="745" y="1150" width="120" height="40" as="geometry" />
        </mxCell>
        <mxCell id="d-H-3J-rTo5-7E1GxQel-99" value="特征共享" style="rounded=0;whiteSpace=wrap;html=1;" vertex="1" parent="1">
          <mxGeometry x="745" y="1200" width="120" height="40" as="geometry" />
        </mxCell>
        <mxCell id="d-H-3J-rTo5-7E1GxQel-100" value="......." style="rounded=0;whiteSpace=wrap;html=1;" vertex="1" parent="1">
          <mxGeometry x="745" y="1250" width="120" height="40" as="geometry" />
        </mxCell>
        <mxCell id="d-H-3J-rTo5-7E1GxQel-101" style="edgeStyle=orthogonalEdgeStyle;rounded=0;orthogonalLoop=1;jettySize=auto;html=1;exitX=0.5;exitY=0;exitDx=0;exitDy=0;entryX=0.5;entryY=1;entryDx=0;entryDy=0;entryPerimeter=0;" edge="1" parent="1" source="d-H-3J-rTo5-7E1GxQel-96" target="d-H-3J-rTo5-7E1GxQel-87">
          <mxGeometry relative="1" as="geometry" />
        </mxCell>
        <mxCell id="d-H-3J-rTo5-7E1GxQel-107" style="edgeStyle=orthogonalEdgeStyle;rounded=0;orthogonalLoop=1;jettySize=auto;html=1;exitX=0.5;exitY=0;exitDx=0;exitDy=0;entryX=0.5;entryY=1;entryDx=0;entryDy=0;" edge="1" parent="1" source="d-H-3J-rTo5-7E1GxQel-102" target="d-H-3J-rTo5-7E1GxQel-90">
          <mxGeometry relative="1" as="geometry" />
        </mxCell>
        <mxCell id="d-H-3J-rTo5-7E1GxQel-102" value="" style="whiteSpace=wrap;html=1;verticalAlign=top;" vertex="1" parent="1">
          <mxGeometry x="1404.5" y="1110" width="170" height="220" as="geometry" />
        </mxCell>
        <mxCell id="d-H-3J-rTo5-7E1GxQel-103" value="推理服务" style="text;html=1;align=center;verticalAlign=middle;whiteSpace=wrap;rounded=0;fillColor=#d5e8d4;strokeColor=#82b366;" vertex="1" parent="1">
          <mxGeometry x="1404.5" y="1110" width="60" height="30" as="geometry" />
        </mxCell>
        <mxCell id="d-H-3J-rTo5-7E1GxQel-105" value="模型推理" style="rounded=0;whiteSpace=wrap;html=1;" vertex="1" parent="1">
          <mxGeometry x="1429.5" y="1190" width="120" height="40" as="geometry" />
        </mxCell>
        <mxCell id="d-H-3J-rTo5-7E1GxQel-106" value="......." style="rounded=0;whiteSpace=wrap;html=1;" vertex="1" parent="1">
          <mxGeometry x="1429.5" y="1240" width="120" height="40" as="geometry" />
        </mxCell>
        <mxCell id="d-H-3J-rTo5-7E1GxQel-108" value="" style="whiteSpace=wrap;html=1;verticalAlign=top;" vertex="1" parent="1">
          <mxGeometry x="413.33" y="1460" width="170" height="220" as="geometry" />
        </mxCell>
        <mxCell id="d-H-3J-rTo5-7E1GxQel-109" value="召回服务" style="text;html=1;align=center;verticalAlign=middle;whiteSpace=wrap;rounded=0;fillColor=#d5e8d4;strokeColor=#82b366;" vertex="1" parent="1">
          <mxGeometry x="413.33" y="1460" width="60" height="30" as="geometry" />
        </mxCell>
        <mxCell id="d-H-3J-rTo5-7E1GxQel-110" value="特征提取" style="rounded=0;whiteSpace=wrap;html=1;" vertex="1" parent="1">
          <mxGeometry x="438.33" y="1510" width="120" height="40" as="geometry" />
        </mxCell>
        <mxCell id="d-H-3J-rTo5-7E1GxQel-111" value="向量召回" style="rounded=0;whiteSpace=wrap;html=1;" vertex="1" parent="1">
          <mxGeometry x="438.33" y="1560" width="120" height="40" as="geometry" />
        </mxCell>
        <mxCell id="d-H-3J-rTo5-7E1GxQel-112" value="......." style="rounded=0;whiteSpace=wrap;html=1;" vertex="1" parent="1">
          <mxGeometry x="438.33" y="1610" width="120" height="40" as="geometry" />
        </mxCell>
        <mxCell id="d-H-3J-rTo5-7E1GxQel-113" value="" style="whiteSpace=wrap;html=1;verticalAlign=top;" vertex="1" parent="1">
          <mxGeometry x="730" y="1460" width="170" height="220" as="geometry" />
        </mxCell>
        <mxCell id="d-H-3J-rTo5-7E1GxQel-114" value="粗排服务" style="text;html=1;align=center;verticalAlign=middle;whiteSpace=wrap;rounded=0;fillColor=#d5e8d4;strokeColor=#82b366;" vertex="1" parent="1">
          <mxGeometry x="730" y="1460" width="60" height="30" as="geometry" />
        </mxCell>
        <mxCell id="d-H-3J-rTo5-7E1GxQel-115" value="特征提取" style="rounded=0;whiteSpace=wrap;html=1;" vertex="1" parent="1">
          <mxGeometry x="755" y="1510" width="120" height="40" as="geometry" />
        </mxCell>
        <mxCell id="d-H-3J-rTo5-7E1GxQel-116" value="DSSM双塔" style="rounded=0;whiteSpace=wrap;html=1;" vertex="1" parent="1">
          <mxGeometry x="755" y="1560" width="120" height="40" as="geometry" />
        </mxCell>
        <mxCell id="d-H-3J-rTo5-7E1GxQel-117" value="......." style="rounded=0;whiteSpace=wrap;html=1;" vertex="1" parent="1">
          <mxGeometry x="755" y="1610" width="120" height="40" as="geometry" />
        </mxCell>
        <mxCell id="d-H-3J-rTo5-7E1GxQel-118" value="" style="whiteSpace=wrap;html=1;verticalAlign=top;" vertex="1" parent="1">
          <mxGeometry x="1050" y="1460" width="170" height="220" as="geometry" />
        </mxCell>
        <mxCell id="d-H-3J-rTo5-7E1GxQel-119" value="精排服务" style="text;html=1;align=center;verticalAlign=middle;whiteSpace=wrap;rounded=0;fillColor=#d5e8d4;strokeColor=#82b366;" vertex="1" parent="1">
          <mxGeometry x="1050" y="1460" width="60" height="30" as="geometry" />
        </mxCell>
        <mxCell id="d-H-3J-rTo5-7E1GxQel-120" value="特征提取" style="rounded=0;whiteSpace=wrap;html=1;" vertex="1" parent="1">
          <mxGeometry x="1075" y="1510" width="120" height="40" as="geometry" />
        </mxCell>
        <mxCell id="d-H-3J-rTo5-7E1GxQel-121" value="特征上报" style="rounded=0;whiteSpace=wrap;html=1;" vertex="1" parent="1">
          <mxGeometry x="1075" y="1560" width="120" height="40" as="geometry" />
        </mxCell>
        <mxCell id="d-H-3J-rTo5-7E1GxQel-122" value="本地推理" style="rounded=0;whiteSpace=wrap;html=1;" vertex="1" parent="1">
          <mxGeometry x="1075" y="1610" width="120" height="40" as="geometry" />
        </mxCell>
      </root>
    </mxGraphModel>
  </diagram>
</mxfile>
